<svg id="Layer_1" data-name="Layer 1" xmlns="http://www.w3.org/2000/svg" viewBox="0 0 316.4 44.14"><defs><style>.cls-1{fill:#5e6a71;}.cls-2{fill:#981e32;}.cls-3{fill:#fff;}</style></defs><title>2015-WSU Nursing_Hrz Abbr_RGB</title><path class="cls-1" d="M95.12,30.13a11,11,0,0,0-6.21-2.07c-5.88,0-9.34,4.21-9.34,9.78,0,6,4.14,10,9.34,10a10.64,10.64,0,0,0,6-1.77l1.29,2a14,14,0,0,1-7.47,2.18c-8.49,0-12.8-5.81-12.8-12.36,0-6,4.68-12.22,13.21-12.22a11.55,11.55,0,0,1,7.33,2.41Z" transform="translate(-20.68 -18.91)"/><path class="cls-1" d="M97.19,41.17a8.38,8.38,0,1,1,16.74,0c0,5.26-3.36,9.1-8.39,9.1S97.19,46.43,97.19,41.17Zm3.29,0c0,3.19,1.09,6.92,5.06,6.92s5.1-3.73,5.1-6.92-1.26-6.52-5.1-6.52S100.48,38.11,100.48,41.17Z" transform="translate(-20.68 -18.91)"/><path class="cls-1" d="M117,49.86v-25h3v25Z" transform="translate(-20.68 -18.91)"/><path class="cls-1" d="M124.18,49.86v-25h3.06v25Z" transform="translate(-20.68 -18.91)"/><path class="cls-1" d="M133.41,41.57c0,3.4,2.38,6.52,5.74,6.52a8.4,8.4,0,0,0,4.65-1.46l.89,1.67a10.28,10.28,0,0,1-5.64,2c-5.3,0-8.79-3.26-8.79-9.24s4.21-8.55,8-8.55c5.16,0,6.9,4.65,6.56,9.09Zm8.66-2c0-2.65-1.12-4.89-3.8-4.89-3.26,0-4.55,2.71-4.65,4.89Z" transform="translate(-20.68 -18.91)"/><path class="cls-1" d="M163,49.25c0,6.48-4,9.1-8.62,9.1a13.39,13.39,0,0,1-7-1.7l.85-2a11.55,11.55,0,0,0,6.08,1.52c3.49,0,5.63-2.24,5.63-6.68V47.18h-.06a6.79,6.79,0,0,1-5.67,3.09c-4.69,0-7.61-3.67-7.61-9.1,0-4.42,3.26-8.69,8.11-8.69a6,6,0,0,1,5.17,2.75H160V32.88H163ZM160,40.83c0-3.19-1.73-6.18-5.06-6.18-3.53,0-5,2.78-5,6.38s1.57,7.06,4.79,7.06C158.4,48.09,160,44.6,160,40.83Z" transform="translate(-20.68 -18.91)"/><path class="cls-1" d="M169.13,41.57c0,3.4,2.38,6.52,5.74,6.52a8.43,8.43,0,0,0,4.65-1.46l.88,1.67a10.28,10.28,0,0,1-5.64,2C169.47,50.27,166,47,166,41s4.21-8.55,8.05-8.55c5.16,0,6.89,4.65,6.55,9.09Zm8.66-2c0-2.65-1.12-4.89-3.81-4.89-3.26,0-4.55,2.71-4.65,4.89Z" transform="translate(-20.68 -18.91)"/><path class="cls-1" d="M191.23,41.17a8.38,8.38,0,1,1,16.74,0c0,5.26-3.36,9.1-8.39,9.1S191.23,46.43,191.23,41.17Zm3.29,0c0,3.19,1.09,6.92,5.06,6.92s5.09-3.73,5.09-6.92-1.25-6.52-5.09-6.52S194.52,38.11,194.52,41.17Z" transform="translate(-20.68 -18.91)"/><path class="cls-1" d="M211.16,49.86V34.65h-2.72V32.88h2.72V30.81c0-4.55,3.05-5.91,5-5.91a4.65,4.65,0,0,1,2.68.72l-.68,1.56a5.84,5.84,0,0,0-1.67-.24c-.5,0-2.24.14-2.24,2.89v3.05h4.08v1.77h-4.08V49.86Z" transform="translate(-20.68 -18.91)"/><path class="cls-1" d="M250.23,49.86h-2.58c-5.16-6.18-14-16.84-15.44-18.91h-.07V49.86h-2.72V26.09h2.45c5.23,6.18,14,16.57,15.58,19h.07V26.09h2.71Z" transform="translate(-20.68 -18.91)"/><path class="cls-1" d="M265.58,47.89a7.9,7.9,0,0,1-5.47,2.38c-3.9,0-6-2.18-6-6.45V32.88h3.06V43.14c0,3.19,1.36,4.89,4.11,4.89,2.34,0,4.27-1.94,4.27-5.23V32.88h3.06v17h-3Z" transform="translate(-20.68 -18.91)"/><path class="cls-1" d="M275.76,35,277,33.7a3.24,3.24,0,0,1,5.36.44l-1.39,2a5.31,5.31,0,0,0-2.28-.71c-1.56,0-2.85,1.56-2.85,5.33v9.13h-3.05v-17h3Z" transform="translate(-20.68 -18.91)"/><path class="cls-1" d="M291.72,35.6a5.46,5.46,0,0,0-3.12-1.09c-1.09,0-2.48.51-2.48,1.94s1.56,2.14,3.5,3.6c2.17,1.66,3.59,3.05,3.59,5.43,0,2.85-2.81,4.79-5.94,4.79A7.37,7.37,0,0,1,282,48.13l1.5-1.73a5.71,5.71,0,0,0,3.67,1.69c1.42,0,2.88-.74,2.88-2.41,0-2-1.76-2.82-3.36-4-1.94-1.39-3.63-2.55-3.63-4.85,0-2.69,2.65-4.38,5.63-4.38A6.16,6.16,0,0,1,292.91,34Z" transform="translate(-20.68 -18.91)"/><path class="cls-1" d="M295.69,27.28a1.94,1.94,0,1,1,1.94,2.07A1.87,1.87,0,0,1,295.69,27.28Zm3.47,5.6v17H296.1v-17Z" transform="translate(-20.68 -18.91)"/><path class="cls-1" d="M306.35,35a8.48,8.48,0,0,1,5.81-2.51c3.9,0,6,2.17,6,6.45V49.86h-3.06V39.57c0-3.19-1.36-4.85-4.11-4.85a4.53,4.53,0,0,0-4.61,4.92V49.86h-3.06v-17h3Z" transform="translate(-20.68 -18.91)"/><path class="cls-1" d="M337.08,49.25c0,6.48-4,9.1-8.63,9.1a13.38,13.38,0,0,1-7-1.7l.85-2a11.54,11.54,0,0,0,6.07,1.52c3.5,0,5.64-2.24,5.64-6.68V47.18H334a6.78,6.78,0,0,1-5.67,3.09c-4.68,0-7.6-3.67-7.6-9.1,0-4.42,3.26-8.69,8.11-8.69A6,6,0,0,1,334,35.23H334V32.88h3.06ZM334,40.83c0-3.19-1.73-6.18-5.06-6.18-3.53,0-5,2.78-5,6.38s1.56,7.06,4.79,7.06C332.46,48.09,334,44.6,334,40.83Z" transform="translate(-20.68 -18.91)"/><rect class="cls-1" x="42.49" width="0.72" height="44.14"/><path class="cls-1" d="M41.11,57.41l-5.4,3.84-5.4-3.84c-3.83-2.63-7.12-4.87-8.84-8.29,1.42,6.4,7.68,8.8,14.24,13.93C42.27,57.92,48.53,55.52,50,49.12,48.23,52.54,45,54.78,41.11,57.41Z" transform="translate(-20.68 -18.91)"/><path class="cls-2" d="M20.68,26.11v.67c.41.14.55.27.59.88V43.13c0,8.61,7,10.88,14.4,16.66,7.39-5.78,14.4-8,14.4-16.66V27.49a.68.68,0,0,1,.58-.71v-.67Z" transform="translate(-20.68 -18.91)"/><path class="cls-3" d="M38.63,51.29a4,4,0,0,0,1.85-2.49,4.92,4.92,0,0,1,.43,2.45A15.2,15.2,0,0,1,38.63,51.29Z" transform="translate(-20.68 -18.91)"/><path class="cls-3" d="M45.06,40s.73,4-1.86,4.12-3.67-3.62-3.67-3.62.6,7.33,4.1,6.85C47.57,46.77,45.06,40,45.06,40Z" transform="translate(-20.68 -18.91)"/><path class="cls-3" d="M26.06,50.35h0c2.91-.67,5.15-4.07,5.8-5.44l.42-.86.25.92a10.6,10.6,0,0,1,.28,2.42c0,.15,0,.31,0,.46A2.7,2.7,0,0,0,35,47.22c.64-.66.84-1.91.6-3.83-.12-.92-.46-2.38-.76-3.67-.15-.66-.3-1.28-.39-1.72a7,7,0,0,1,.82-5.54A5.2,5.2,0,0,1,35.6,32a13.53,13.53,0,0,0-5.45,3.48l1.22,1.43.51-.47A8.17,8.17,0,0,1,32,39.85a14.79,14.79,0,0,0-1.41-1.78l.34-.56-1.11-1.28-.13-.15a12.17,12.17,0,0,0-1.8,3.4l1,.88.57.51.18-.54a4.29,4.29,0,0,1,.1,3.76,6.83,6.83,0,0,0-.86-1.64l.27-.89-1.44-1.3c-1.49,4.66-3.49,6.18-3.49,6.18a31,31,0,0,0,3.37-.8A9.91,9.91,0,0,1,26.06,50.35Z" transform="translate(-20.68 -18.91)"/><path class="cls-3" d="M47.86,33.51l-3.45.14a3.55,3.55,0,0,1-.18,1.21,4.76,4.76,0,0,1,.1,2.17,5,5,0,0,0-1-1.71c-3.17-1.41-5,1.77-4.76,3.83.16,1.68.77,3.92,1.25,7.44.4,2.95-1.1,4.23-2.82,4.52l-.11,0h0a5.08,5.08,0,0,1-.89,0h-.13l-.4,0a60.89,60.89,0,0,0-7.44-.8A12.82,12.82,0,0,0,32,46.12a11.52,11.52,0,0,1,.08,1.28c0,.25,0,.5,0,.76l0,.36.35,0a3.66,3.66,0,0,0,3.1-.83c.81-.84,1.06-2.25.78-4.42-.11-1-.46-2.44-.76-3.74-.16-.65-.3-1.27-.39-1.7a6.23,6.23,0,0,1,.71-5,3.7,3.7,0,0,1,1.84-1.4h0l1.17-3.61h.37l-.79,3.47.56-.09,1-3.2h.36l-.66,3.1c1-.13,2.19-.24,3.46-.33a1.5,1.5,0,0,1,.62.65l3.32-1,.12.36L44.1,32c0,.06,0,.13.07.2l3.47-.43.06.37-3.37.67,0,.19,3.51.11Zm-10,1.55a4.94,4.94,0,0,1,3-.78c.28,0,.52-.05.21-.21a4.51,4.51,0,0,0-3.45.18,2.16,2.16,0,0,0-.88,2.11A4,4,0,0,1,37.87,35.06Z" transform="translate(-20.68 -18.91)"/></svg>